<svg xmlns="http://www.w3.org/2000/svg" viewBox="0 0 15 15" width="1em" height="1em"><path d="M5.111 0c-.692 0-1.358.138-1.99.407a5.076 5.076 0 0 0-1.625 1.089c-.458.457-.82.994-1.09 1.626A5.045 5.045 0 0 0 0 5.112C0 5.802.138 6.468.407 7.1a5.076 5.076 0 0 0 1.089 1.627c.457.457.994.82 1.626 1.089a5.045 5.045 0 0 0 1.99.406c1.064 0 2.022-.3 2.889-.9l2.497 2.483a.862.862 0 0 0 .654.276c.251 0 .469-.092.653-.276a.893.893 0 0 0 .276-.653.883.883 0 0 0-.261-.654L9.322 8.001c.324-.468.563-.956.712-1.481-.003-.034-.015-.07-.015-.102 0-.104.037-.211.058-.32h-.334c-.417 0-.941-.247-1.205-.551-.065-.075-.135-.154-.189-.247a3.103 3.103 0 0 1-.944 2.105c-.636.637-1.399.958-2.294.959-.895 0-1.657-.322-2.294-.959s-.958-1.399-.958-2.294.321-1.657.958-2.294 1.399-.959 2.294-.958c.895 0 1.658.322 2.294.958.315.315.567.653.726 1.03.024-.378.18-.769.407-1.03a1.78 1.78 0 0 1 .857-.508 5.006 5.006 0 0 0-.668-.813A5.076 5.076 0 0 0 7.1.406 5.045 5.045 0 0 0 5.111 0zM15 4.182q0 .21-.143.353l-2.524 2.524q-.152.143-.353.143-.198 0-.35-.143l-.29-.291q-.147-.148-.147-.353t.147-.353l1.136-1.136h-2.73q-.2 0-.327-.145-.126-.146-.126-.351v-.496q0-.206.126-.351.126-.146.328-.146h2.729l-1.136-1.14q-.147-.139-.147-.348 0-.21.147-.35l.29-.29q.148-.147.35-.147.205 0 .353.147l2.524 2.524q.143.136.143.349z"></path></svg>